# xmcd CD database file
#
# Track frame offsets:
#	150
#	22390
#	37922
#	60162
#
# Disc length: 1006 seconds
#
# Revision: 6
# Processed by: cddbd v1.5.2PL0 Copyright (c) Steve Scherf et al.
# Submitted via: CDex 1.70beta3
#
DISCID=2903ec04
DTITLE=ZONE - secret base ～君がくれたもの～
DYEAR=2001
DGENRE=J-Pop
TTITLE0=secret base ～君がくれたもの～
TTITLE1=新・僕はマグマ
TTITLE2=secret base ～君がくれたもの～ (Backing Tracks)
TTITLE3=新・僕はマグマ (Backing Tracks)
EXTD=YEAR: 2001
EXTT0=
EXTT1=
EXTT2=
EXTT3=
PLAYORDER=
